<svg xmlns="http://www.w3.org/2000/svg" viewBox="0 0 132 132" role="img" aria-label="FreeToolsSpace">
  <defs><linearGradient id="g" x1="14" y1="12" x2="116" y2="118" gradientUnits="userSpaceOnUse"><stop offset="0" stop-color="#fff2b8"/><stop offset="0.45" stop-color="#ffdf67"/><stop offset="1" stop-color="#15a170"/></linearGradient><linearGradient id="t" x1="34" y1="32" x2="96" y2="96" gradientUnits="userSpaceOnUse"><stop offset="0" stop-color="#fff"/><stop offset="1" stop-color="#f8f5ec"/></linearGradient></defs>
  <rect x="12" y="12" width="108" height="108" rx="28" fill="url(#g)" stroke="#17201b" stroke-width="5"/>
  <path d="M38 42h56M38 66h56M38 90h56M42 38v56M66 38v56M90 38v56" stroke="#17201b" stroke-width="4" stroke-linecap="round" opacity="0.18"/>
  <rect x="36" y="36" width="26" height="26" rx="9" fill="url(#t)" stroke="#17201b" stroke-width="3"/><path d="M44 50h11M50 44v12" stroke="#0f6b4d" stroke-width="3.5" stroke-linecap="round"/>
  <rect x="70" y="36" width="26" height="26" rx="9" fill="url(#t)" stroke="#17201b" stroke-width="3"/><path d="M78 47h10M78 53h10" stroke="#6d28d9" stroke-width="3.5" stroke-linecap="round"/>
  <rect x="36" y="70" width="26" height="26" rx="9" fill="url(#t)" stroke="#17201b" stroke-width="3"/><path d="M45 82h8l-4 7h8" fill="none" stroke="#1769e0" stroke-width="3.5" stroke-linecap="round" stroke-linejoin="round"/>
  <rect x="70" y="70" width="26" height="26" rx="9" fill="url(#t)" stroke="#17201b" stroke-width="3"/><path d="M82 78l2.2 5.4 5.8.5-4.4 3.8 1.3 5.7-4.9-3-5 3 1.4-5.7-4.4-3.8 5.8-.5L82 78z" fill="#d7a72f" stroke="#17201b" stroke-width="2" stroke-linejoin="round"/>
</svg>
